<?xml version="1.0" encoding="UTF-8" standalone="no"?>
<!-- Created with Inkscape (http://www.inkscape.org/) -->

<svg
   xmlns:dc="http://purl.org/dc/elements/1.1/"
   xmlns:cc="http://creativecommons.org/ns#"
   xmlns:rdf="http://www.w3.org/1999/02/22-rdf-syntax-ns#"
   xmlns:svg="http://www.w3.org/2000/svg"
   xmlns="http://www.w3.org/2000/svg"
   xmlns:xlink="http://www.w3.org/1999/xlink"
   xmlns:sodipodi="http://sodipodi.sourceforge.net/DTD/sodipodi-0.dtd"
   xmlns:inkscape="http://www.inkscape.org/namespaces/inkscape"
   width="571.31018"
   height="527.22791"
   id="svg2"
   version="1.1"
   inkscape:version="0.48.2 r9819"
   sodipodi:docname="ciclo-tdd.svg"
   inkscape:export-filename="/home/hugo/projetos/meus/monografia/images/ciclo-tdd.png"
   inkscape:export-xdpi="90"
   inkscape:export-ydpi="90">
  <defs
     id="defs4">
    <marker
       inkscape:stockid="Arrow2Mend"
       orient="auto"
       refY="0"
       refX="0"
       id="Arrow2Mend"
       style="overflow:visible">
      <path
         id="path3903"
         style="font-size:12px;fill-rule:evenodd;stroke-width:0.625;stroke-linejoin:round"
         d="M 8.7185878,4.0337352 -2.2072895,0.01601326 8.7185884,-4.0017078 c -1.7454984,2.3720609 -1.7354408,5.6174519 -6e-7,8.035443 z"
         transform="scale(-0.6,-0.6)"
         inkscape:connector-curvature="0" />
    </marker>
    <marker
       inkscape:stockid="Arrow1Send"
       orient="auto"
       refY="0"
       refX="0"
       id="Arrow1Send"
       style="overflow:visible">
      <path
         id="path3891"
         d="M 0,0 5,-5 -12.5,0 5,5 0,0 z"
         style="fill-rule:evenodd;stroke:#000000;stroke-width:1pt;marker-start:none"
         transform="matrix(-0.2,0,0,-0.2,-1.2,0)"
         inkscape:connector-curvature="0" />
    </marker>
    <marker
       inkscape:stockid="Arrow1Mend"
       orient="auto"
       refY="0"
       refX="0"
       id="Arrow1Mend"
       style="overflow:visible">
      <path
         id="path3885"
         d="M 0,0 5,-5 -12.5,0 5,5 0,0 z"
         style="fill-rule:evenodd;stroke:#000000;stroke-width:1pt;marker-start:none"
         transform="matrix(-0.4,0,0,-0.4,-4,0)"
         inkscape:connector-curvature="0" />
    </marker>
    <marker
       inkscape:stockid="Arrow2Mstart"
       orient="auto"
       refY="0"
       refX="0"
       id="Arrow2Mstart"
       style="overflow:visible">
      <path
         id="path3900"
         style="font-size:12px;fill-rule:evenodd;stroke-width:0.625;stroke-linejoin:round"
         d="M 8.7185878,4.0337352 -2.2072895,0.01601326 8.7185884,-4.0017078 c -1.7454984,2.3720609 -1.7354408,5.6174519 -6e-7,8.035443 z"
         transform="scale(0.6,0.6)"
         inkscape:connector-curvature="0" />
    </marker>
    <path
       style="fill:#ffffff;stroke:#000000;stroke-width:4.21779871;stroke-linecap:butt;stroke-linejoin:miter;stroke-miterlimit:4;stroke-opacity:1"
       d="m 466.82552,328.27821 c 36.18158,59.78711 17.04553,137.58507 -42.74156,173.76665 -59.7871,36.18158 -137.58506,17.04553 -173.76664,-42.74155 -36.18157,-59.78709 -17.04553,-137.58507 42.74155,-173.76665 59.7871,-36.18158 137.58508,-17.04551 173.76665,42.74155 z"
       id="path2987-3"
       inkscape:connector-curvature="0" />
  </defs>
  <sodipodi:namedview
     id="base"
     pagecolor="#ffffff"
     bordercolor="#666666"
     borderopacity="1.0"
     inkscape:pageopacity="0.0"
     inkscape:pageshadow="2"
     inkscape:zoom="0.5"
     inkscape:cx="430.81763"
     inkscape:cy="199.844"
     inkscape:document-units="px"
     inkscape:current-layer="g6970"
     showgrid="false"
     inkscape:window-width="1366"
     inkscape:window-height="744"
     inkscape:window-x="0"
     inkscape:window-y="24"
     inkscape:window-maximized="1"
     fit-margin-top="5"
     fit-margin-left="5"
     fit-margin-bottom="5"
     fit-margin-right="5" />
  <metadata
     id="metadata7">
    <rdf:RDF>
      <cc:Work
         rdf:about="">
        <dc:format>image/svg+xml</dc:format>
        <dc:type
           rdf:resource="http://purl.org/dc/dcmitype/StillImage" />
        <dc:title />
      </cc:Work>
    </rdf:RDF>
  </metadata>
  <g
     inkscape:label="Camada 1"
     inkscape:groupmode="layer"
     id="layer1"
     transform="translate(-204.47516,1.8845161)">
    <g
       id="g6970"
       transform="matrix(1.8781148,0,0,1.8781148,-183.94322,-456.92122)"
       inkscape:export-xdpi="90"
       inkscape:export-ydpi="90">
      <path
         inkscape:connector-curvature="0"
         id="path2987"
         d="m 466.3549,328.46646 c 36.18158,59.78711 17.04553,137.58507 -42.74156,173.76665 -59.7871,36.18158 -137.58506,17.04553 -173.76664,-42.74155 -36.18157,-59.78709 -17.04553,-137.58507 42.74155,-173.76665 59.7871,-36.18158 137.58508,-17.04551 173.76665,42.74155 z"
         style="fill:#ffffff;stroke:none" />
      <text
         transform="matrix(0.99318866,0.11651737,-0.11651737,0.99318866,47.047606,-39.343267)"
         sodipodi:linespacing="125%"
         id="text3757"
         style="font-size:32px;font-style:normal;font-weight:normal;line-height:125%;letter-spacing:0px;word-spacing:0px;fill:#000000;fill-opacity:1;stroke:none;font-family:Sans"
         xml:space="preserve"><textPath
           id="textPath3792"
           xlink:href="#path2987"><tspan
   id="tspan3867"
   style="fill:#44aa00">codifique</tspan><tspan
   id="tspan3869"
   style="fill:#37abc8">                     refatore</tspan><tspan
   id="tspan3861"
   style="fill:#ff0000">            teste</tspan></textPath></text>
      <path
         transform="matrix(-0.03390677,-0.98090948,0.98090948,-0.03390677,-15.415982,762.34023)"
         d="m 478.00417,391.92444 c 0,62.48388 -50.65319,113.13708 -113.13707,113.13708 -62.48389,0 -113.13708,-50.6532 -113.13708,-113.13708 0,-62.48388 50.65319,-113.13708 113.13708,-113.13708 62.48388,0 113.13707,50.6532 113.13707,113.13708 z"
         sodipodi:ry="113.13708"
         sodipodi:rx="113.13708"
         sodipodi:cy="391.92444"
         sodipodi:cx="364.8671"
         id="path5821"
         style="fill:none;stroke:#a4a4a4;stroke-width:3.05656075;stroke-linecap:butt;stroke-linejoin:miter;stroke-miterlimit:4;stroke-opacity:1;stroke-dasharray:none;marker-start:none;marker-mid:none"
         sodipodi:type="arc" />
      <path
         style="fill:#a4a4a4;fill-opacity:1;stroke:#a4a4a4;stroke-width:1.37087774;stroke-linecap:butt;stroke-linejoin:miter;stroke-miterlimit:4;stroke-opacity:1"
         d="m 433.52352,319.30998 8.55889,0.92552 1.94911,-9.05876 3.2051,10.28436 3.31717,9.96403 -8.7603,-6.22635 z"
         id="path4019"
         inkscape:connector-curvature="0"
         sodipodi:nodetypes="ccccccc"
         inkscape:transform-center-x="6.1534648"
         inkscape:transform-center-y="-4.9026598" />
      <path
         style="fill:#a4a4a4;fill-opacity:1;stroke:#a4a4a4;stroke-width:1.37087774;stroke-linecap:butt;stroke-linejoin:miter;stroke-miterlimit:4;stroke-opacity:1"
         d="m 270.71449,330.60418 -0.80145,-8.57139 -9.26551,-0.10181 9.43769,-5.19335 9.10141,-5.23926 -4.35251,9.82682 z"
         id="path4019-0"
         inkscape:connector-curvature="0"
         sodipodi:nodetypes="ccccccc"
         inkscape:transform-center-x="3.4129612"
         inkscape:transform-center-y="2.489655" />
      <path
         style="fill:#a4a4a4;fill-opacity:1;stroke:#a4a4a4;stroke-width:1.37087774;stroke-linecap:butt;stroke-linejoin:miter;stroke-miterlimit:4;stroke-opacity:1"
         d="m 365.69494,494.66525 -5.39359,6.70971 6.57891,6.52518 -10.38979,-2.8448 -10.18042,-2.57771 9.96677,-4.02171 z"
         id="path4019-9"
         inkscape:connector-curvature="0"
         sodipodi:nodetypes="ccccccc"
         inkscape:transform-center-y="-0.9011686"
         inkscape:transform-center-x="1.4883912" />
    </g>
  </g>
</svg>
